<mxfile host="app.diagrams.net" agent="Mozilla/5.0 (Windows NT 10.0; Win64; x64) AppleWebKit/537.36 (KHTML, like Gecko) Chrome/133.0.0.0 Safari/537.36" version="26.0.15">
  <diagram name="Page-1" id="g9Gm68W4gXhNJMx40n69">
    <mxGraphModel dx="1050" dy="1657" grid="1" gridSize="10" guides="1" tooltips="1" connect="1" arrows="1" fold="1" page="1" pageScale="1" pageWidth="850" pageHeight="1100" math="0" shadow="0">
      <root>
        <mxCell id="0" />
        <mxCell id="1" parent="0" />
        <mxCell id="vTJhnFbnyQJlAznUNc7g-1" value="Cliente&lt;div&gt;&lt;br&gt;&lt;/div&gt;" style="whiteSpace=wrap;html=1;align=center;" vertex="1" parent="1">
          <mxGeometry x="350" y="50" width="100" height="40" as="geometry" />
        </mxCell>
        <mxCell id="vTJhnFbnyQJlAznUNc7g-2" value="Nombre" style="ellipse;whiteSpace=wrap;html=1;align=center;" vertex="1" parent="1">
          <mxGeometry x="510" y="40" width="100" height="40" as="geometry" />
        </mxCell>
        <mxCell id="vTJhnFbnyQJlAznUNc7g-3" value="ID_Cliente" style="ellipse;whiteSpace=wrap;html=1;align=center;fontStyle=4;" vertex="1" parent="1">
          <mxGeometry x="220" y="100" width="100" height="40" as="geometry" />
        </mxCell>
        <mxCell id="vTJhnFbnyQJlAznUNc7g-4" value="Telefono" style="ellipse;whiteSpace=wrap;html=1;align=center;" vertex="1" parent="1">
          <mxGeometry x="220" y="-29" width="100" height="40" as="geometry" />
        </mxCell>
        <mxCell id="vTJhnFbnyQJlAznUNc7g-5" value="Direccion&lt;div&gt;&lt;br&gt;&lt;/div&gt;" style="ellipse;whiteSpace=wrap;html=1;align=center;" vertex="1" parent="1">
          <mxGeometry x="220" y="40" width="100" height="40" as="geometry" />
        </mxCell>
        <mxCell id="vTJhnFbnyQJlAznUNc7g-6" value="Credito_Maximo" style="ellipse;whiteSpace=wrap;html=1;align=center;" vertex="1" parent="1">
          <mxGeometry x="359" y="-40" width="100" height="40" as="geometry" />
        </mxCell>
        <mxCell id="vTJhnFbnyQJlAznUNc7g-7" value="Direcion&lt;span style=&quot;color: rgba(0, 0, 0, 0); font-family: monospace; font-size: 0px; text-align: start; text-wrap-mode: nowrap;&quot;&gt;%3CmxGraphModel%3E%3Croot%3E%3CmxCell%20id%3D%220%22%2F%3E%3CmxCell%20id%3D%221%22%20parent%3D%220%22%2F%3E%3CmxCell%20id%3D%222%22%20value%3D%22Telefono%22%20style%3D%22ellipse%3BwhiteSpace%3Dwrap%3Bhtml%3D1%3Balign%3Dcenter%3B%22%20vertex%3D%221%22%20parent%3D%221%22%3E%3CmxGeometry%20x%3D%22230%22%20y%3D%22340%22%20width%3D%22100%22%20height%3D%2240%22%20as%3D%22geometry%22%2F%3E%3C%2FmxCell%3E%3C%2Froot%3E%3C%2FmxGraphModel%3E&lt;/span&gt;" style="ellipse;whiteSpace=wrap;html=1;align=center;" vertex="1" parent="1">
          <mxGeometry x="510" y="100" width="100" height="40" as="geometry" />
        </mxCell>
        <mxCell id="vTJhnFbnyQJlAznUNc7g-8" value="Saldo" style="ellipse;whiteSpace=wrap;html=1;align=center;" vertex="1" parent="1">
          <mxGeometry x="510" y="-29" width="100" height="40" as="geometry" />
        </mxCell>
      </root>
    </mxGraphModel>
  </diagram>
</mxfile>
